<?xml version="1.0" encoding="iso-8859-1"?>
<!-- Generator: Adobe Illustrator 19.0.0, SVG Export Plug-In . SVG Version: 6.00 Build 0)  -->
<svg version="1.1" id="Capa_1" xmlns="http://www.w3.org/2000/svg" xmlns:xlink="http://www.w3.org/1999/xlink" x="0px" y="0px"
	 viewBox="0 0 55.989 55.989" style="enable-background:new 0 0 55.989 55.989;" xml:space="preserve">
<g>
	<path d="M20.845,9.625c0-1.925-1.319-3.525-3.042-3.825C17.417,1.545,14.416,0,11.595,0C7.793,0,5.753,2.285,5.024,3.323
		C2.673,3.627,0.845,5.784,0.845,8.393c0,2.816,2.131,5.107,4.75,5.107H17.22C19.219,13.5,20.845,11.762,20.845,9.625z"/>
	<path d="M55.091,44.181L42.442,6.691c-0.137-0.407-0.519-0.681-0.947-0.681s-0.811,0.273-0.947,0.681l-6.005,17.797
		c-2.57-3.046-6.409-4.988-10.698-4.988c-7.72,0-14,6.28-14,14c0,7.382,5.747,13.433,13,13.949V47.5v7.489c0,0.553,0.447,1,1,1
		s1-0.447,1-1V47.5v-0.037c2.246-0.162,4.342-0.864,6.174-1.963h9.826v9.489c0,0.553,0.447,1,1,1s1-0.447,1-1V45.5h11.299
		c0.322,0,0.624-0.155,0.813-0.417C55.144,44.821,55.195,44.485,55.091,44.181z M27.552,38.696l-2.707,2.707V45.5h-2v-4.097
		l-2.707-2.707c-0.391-0.391-0.391-1.023,0-1.414s1.023-0.391,1.414,0l2.293,2.293l2.293-2.293c0.391-0.391,1.023-0.391,1.414,0
		S27.943,38.306,27.552,38.696z M45.552,38.696l-2.707,2.707V43.5h-2v-2.097l-2.707-2.707c-0.391-0.391-0.391-1.023,0-1.414
		s1.023-0.391,1.414,0l2.293,2.293l2.293-2.293c0.391-0.391,1.023-0.391,1.414,0S45.943,38.306,45.552,38.696z"/>
</g>
<g>
</g>
<g>
</g>
<g>
</g>
<g>
</g>
<g>
</g>
<g>
</g>
<g>
</g>
<g>
</g>
<g>
</g>
<g>
</g>
<g>
</g>
<g>
</g>
<g>
</g>
<g>
</g>
<g>
</g>
</svg>
